<?xml version="1.0" encoding="UTF-8"?>
<svg id="Layer_2" data-name="Layer 2" xmlns="http://www.w3.org/2000/svg" viewBox="0 0 347.99 351.06">
  <defs>
    <style>
      .cls-1 {
        fill: #487f77;
      }
    </style>
  </defs>
  <g id="Layer_1-2" data-name="Layer 1">
    <path class="cls-1" d="M330.56,.24V178.46c-10.79-12.29-22.25-23.43-36.41-31.58V53.01c-18.69,7.12-36.65,13.96-55.12,20.99v58.08c-12.63,.22-24.5,2.05-36.8,6.4V74.07c-24.53-8.55-48.54-16.92-73.4-25.58v240.24c-43.05,16.54-85.69,32.92-128.83,49.49V41.61c1.22-1.71,3.15-1.89,4.84-2.47C38.4,27.69,71.99,16.31,105.52,4.79c3.37-1.16,6.31-1,9.63,.18,33.28,11.77,66.61,23.38,99.89,35.16,3.69,1.31,6.88,1.23,10.55-.21,33.5-13.1,67.06-26.04,100.62-38.99,1.19-.46,2.33-1.36,4.35-.68ZM36.91,66.89v217.52c18.63-7.17,36.67-14.12,54.52-20.99V48.28c-18.39,6.28-36.27,12.39-54.52,18.62Z"/>
    <path class="cls-1" d="M277.48,305.64c-42.85,21.74-81.25,4.87-99.66-22.5-19.09-28.38-16.28-65.74,6.82-90.32,24.41-25.97,61.35-31.83,91.03-14.04,17.22,10.32,29.13,25.01,34.24,44.77,5.08,19.62,2.1,38.23-7.44,56.51,15.44,15.48,30.78,30.86,45.51,45.63-8.56,8.61-16.8,16.89-25.23,25.37-14.73-14.78-30.05-30.15-45.27-45.42Zm-1.38-63.5c-.09-20.56-16.71-36.88-37.45-36.76-20.38,.12-36.68,16.58-36.67,37.03,0,20.61,16.57,37.11,37.18,37.06,20.56-.05,37.02-16.69,36.94-37.33Z"/>
  </g>
</svg>